<?xml version="1.0" encoding="UTF-8" standalone="no"?>
<!-- Created with Inkscape (http://www.inkscape.org/) -->

<svg
   xmlns:dc="http://purl.org/dc/elements/1.1/"
   xmlns:cc="http://creativecommons.org/ns#"
   xmlns:rdf="http://www.w3.org/1999/02/22-rdf-syntax-ns#"
   xmlns:svg="http://www.w3.org/2000/svg"
   xmlns="http://www.w3.org/2000/svg"
   xmlns:sodipodi="http://sodipodi.sourceforge.net/DTD/sodipodi-0.dtd"
   xmlns:inkscape="http://www.inkscape.org/namespaces/inkscape"
   width="210mm"
   height="297mm"
   viewBox="0 0 744.09448819 1052.3622047"
   id="svg2"
   version="1.1"
   inkscape:version="0.91 r13725"
   sodipodi:docname="scarebear.svg">
  <defs
     id="defs4" />
  <sodipodi:namedview
     id="base"
     pagecolor="#ffffff"
     bordercolor="#666666"
     borderopacity="1.0"
     inkscape:pageopacity="0.0"
     inkscape:pageshadow="2"
     inkscape:zoom="0.25"
     inkscape:cx="-1065.6557"
     inkscape:cy="1782.3111"
     inkscape:document-units="px"
     inkscape:current-layer="g4185"
     showgrid="false"
     inkscape:window-width="1680"
     inkscape:window-height="988"
     inkscape:window-x="-8"
     inkscape:window-y="-8"
     inkscape:window-maximized="1" />
  <metadata
     id="metadata7">
    <rdf:RDF>
      <cc:Work
         rdf:about="">
        <dc:format>image/svg+xml</dc:format>
        <dc:type
           rdf:resource="http://purl.org/dc/dcmitype/StillImage" />
      </cc:Work>
    </rdf:RDF>
  </metadata>
  <g
     inkscape:label="Layer 1"
     inkscape:groupmode="layer"
     id="layer1">
    <g
       id="g4185">
      <g
         id="g4196"
         transform="matrix(-1.7277988,0,0,-1.7277988,-3690.5167,689.77504)">
        <path
           transform="matrix(0,0.02649011,-0.05744339,0,-1338.8465,-79.873733)"
           d="m -835.71427,-140.49494 -160.8333,274.65378 -157.44053,-276.61261 -157.4405,-276.61261 318.27383,1.95884 318.27379,1.95883 z"
           inkscape:randomized="0"
           inkscape:rounded="0"
           inkscape:flatsided="false"
           sodipodi:arg2="1.5769508"
           sodipodi:arg1="0.52975324"
           sodipodi:r2="367.51788"
           sodipodi:r1="183.75894"
           sodipodi:cy="-233.35208"
           sodipodi:cx="-994.28571"
           sodipodi:sides="3"
           id="path4153"
           style="opacity:1;fill:#cccccc;fill-opacity:1;stroke:none;stroke-width:4.5;stroke-linecap:round;stroke-linejoin:round;stroke-miterlimit:4;stroke-dasharray:none;stroke-opacity:1"
           sodipodi:type="star" />
        <path
           transform="matrix(0,0.02649011,-0.05744339,0,-1340.6322,-58.445162)"
           d="m -835.71427,-140.49494 -160.8333,274.65378 -157.44053,-276.61261 -157.4405,-276.61261 318.27383,1.95884 318.27379,1.95883 z"
           inkscape:randomized="0"
           inkscape:rounded="0"
           inkscape:flatsided="false"
           sodipodi:arg2="1.5769508"
           sodipodi:arg1="0.52975324"
           sodipodi:r2="367.51788"
           sodipodi:r1="183.75894"
           sodipodi:cy="-233.35208"
           sodipodi:cx="-994.28571"
           sodipodi:sides="3"
           id="path4155"
           style="opacity:1;fill:#cccccc;fill-opacity:1;stroke:none;stroke-width:4.5;stroke-linecap:round;stroke-linejoin:round;stroke-miterlimit:4;stroke-dasharray:none;stroke-opacity:1"
           sodipodi:type="star" />
        <path
           transform="matrix(-0.01324505,0.02294111,-0.04974744,-0.02872169,-1369.1189,-37.847098)"
           d="m -835.71427,-140.49494 -160.8333,274.65378 -157.44053,-276.61261 -157.4405,-276.61261 318.27383,1.95884 318.27379,1.95883 z"
           inkscape:randomized="0"
           inkscape:rounded="0"
           inkscape:flatsided="false"
           sodipodi:arg2="1.5769508"
           sodipodi:arg1="0.52975324"
           sodipodi:r2="367.51788"
           sodipodi:r1="183.75894"
           sodipodi:cy="-233.35208"
           sodipodi:cx="-994.28571"
           sodipodi:sides="3"
           id="path4157"
           style="opacity:1;fill:#cccccc;fill-opacity:1;stroke:none;stroke-width:4.5;stroke-linecap:round;stroke-linejoin:round;stroke-miterlimit:4;stroke-dasharray:none;stroke-opacity:1"
           sodipodi:type="star" />
        <path
           transform="matrix(-0.00685614,-0.02558748,0.05548605,-0.01486744,-1399.5685,-94.427051)"
           d="m -835.71427,-140.49494 -160.8333,274.65378 -157.44053,-276.61261 -157.4405,-276.61261 318.27383,1.95884 318.27379,1.95883 z"
           inkscape:randomized="0"
           inkscape:rounded="0"
           inkscape:flatsided="false"
           sodipodi:arg2="1.5769508"
           sodipodi:arg1="0.52975324"
           sodipodi:r2="367.51788"
           sodipodi:r1="183.75894"
           sodipodi:cy="-233.35208"
           sodipodi:cx="-994.28571"
           sodipodi:sides="3"
           id="path4159"
           style="opacity:1;fill:#cccccc;fill-opacity:1;stroke:none;stroke-width:4.5;stroke-linecap:round;stroke-linejoin:round;stroke-miterlimit:4;stroke-dasharray:none;stroke-opacity:1"
           sodipodi:type="star" />
        <path
           transform="matrix(0,-0.02649011,0.05744339,0,-1403.1947,-116.06272)"
           d="m -835.71427,-140.49494 -160.8333,274.65378 -157.44053,-276.61261 -157.4405,-276.61261 318.27383,1.95884 318.27379,1.95883 z"
           inkscape:randomized="0"
           inkscape:rounded="0"
           inkscape:flatsided="false"
           sodipodi:arg2="1.5769508"
           sodipodi:arg1="0.52975324"
           sodipodi:r2="367.51788"
           sodipodi:r1="183.75894"
           sodipodi:cy="-233.35208"
           sodipodi:cx="-994.28571"
           sodipodi:sides="3"
           id="path4161"
           style="opacity:1;fill:#cccccc;fill-opacity:1;stroke:none;stroke-width:4.5;stroke-linecap:round;stroke-linejoin:round;stroke-miterlimit:4;stroke-dasharray:none;stroke-opacity:1"
           sodipodi:type="star" />
        <path
           transform="matrix(0,-0.02649011,0.05744339,0,-1406.0518,-132.49129)"
           d="m -835.71427,-140.49494 -160.8333,274.65378 -157.44053,-276.61261 -157.4405,-276.61261 318.27383,1.95884 318.27379,1.95883 z"
           inkscape:randomized="0"
           inkscape:rounded="0"
           inkscape:flatsided="false"
           sodipodi:arg2="1.5769508"
           sodipodi:arg1="0.52975324"
           sodipodi:r2="367.51788"
           sodipodi:r1="183.75894"
           sodipodi:cy="-233.35208"
           sodipodi:cx="-994.28571"
           sodipodi:sides="3"
           id="path4163"
           style="opacity:1;fill:#cccccc;fill-opacity:1;stroke:none;stroke-width:4.5;stroke-linecap:round;stroke-linejoin:round;stroke-miterlimit:4;stroke-dasharray:none;stroke-opacity:1"
           sodipodi:type="star" />
        <path
           style="opacity:1;fill:#552200;fill-opacity:1;stroke:none;stroke-width:4.5;stroke-linecap:round;stroke-linejoin:round;stroke-miterlimit:4;stroke-dasharray:none;stroke-opacity:1"
           d="m -1271.4277,-33.351562 a 40,18.571428 0 0 0 -34.4649,9.183593 8.5714283,18.571428 0 0 1 0.1778,3.673828 8.5714283,18.571428 0 0 1 -2.461,12.9980472 40,18.571428 0 0 0 36.7481,11.2871094 40,18.571428 0 0 0 40,-18.5722656 40,18.571428 0 0 0 -40,-18.570312 z"
           id="path4144"
           inkscape:connector-curvature="0" />
        <ellipse
           style="opacity:1;fill:#00ffff;fill-opacity:1;stroke:none;stroke-width:4.5;stroke-linecap:round;stroke-linejoin:round;stroke-miterlimit:4;stroke-dasharray:none;stroke-opacity:1"
           id="path4165"
           cx="-1314.1072"
           cy="-19.066368"
           rx="11.607142"
           ry="3.5714285" />
        <path
           style="opacity:1;fill:#552200;fill-opacity:1;stroke:none;stroke-width:4.5;stroke-linecap:round;stroke-linejoin:round;stroke-miterlimit:4;stroke-dasharray:none;stroke-opacity:1"
           d="m -1433.8493,-115.13755 c -7.4597,0.0614 -8.6507,6.90179 -8.651,7.93471 -0.119,589.70954 -0.3571,1769.12864 -0.3571,1769.12864 -2e-4,1.0329 0.8323,1.8652 1.8652,1.8652 l 144.8418,0 c 1.0329,0 1.8648,-0.8323 1.8652,-1.8652 l 0.7143,-1769.12864 c 4e-4,-1.03292 -6.8652,-7.22043 -6.8652,-7.22043 -4.2537,-4.2537 -17.9584,-1.78571 -17.9584,-1.78571 -5.1156,41.724646 -25.3635,71.392797 -48.7481,71.42773 -23.3758,-0.05501 -43.611,-29.718762 -48.7246,-71.42773 0,0 -11.9776,1.02201 -17.9821,1.07143 z m 119.5641,76.071144 c 4.7336,0.0012 8.5706,8.316092 8.5704,18.572265 -3e-4,10.255411 -3.8371,18.5690826 -8.5704,18.5703129 -4.734,9.235e-4 -8.5719,-8.3133789 -8.5722,-18.5703129 -2e-4,-10.257696 3.8379,-18.573189 8.5722,-18.572265 z"
           id="rect4140"
           inkscape:connector-curvature="0"
           sodipodi:nodetypes="sssssssscccscscsc" />
      </g>
    </g>
  </g>
</svg>
